# xmcd
#
# Track frame offsets: 
#        150
#        20810
#        42840
#        64292
#        88417
#        115477
#        139390
#
# Disc length: 2125 seconds
#
# Revision: 1
# Processed by: cddbd v1.5.2PL0 Copyright (c) Steve Scherf et al.
# Submitted via: ExactAudioCopy v1.1
#
DISCID=6c084b07
DTITLE=Sonny Stitt and Bennie Green - My Main Man
DYEAR=1964
DGENRE=Jazz
TTITLE0=Flame And Frost
TTITLE1=Let's Play Chess
TTITLE2=Double Dip
TTITLE3=Our Day Will Come
TTITLE4=May Main Man
TTITLE5=The Night Has A Thousand Eyes
TTITLE6=Broilin'
EXTD=YEAR: 1964
EXTT0=
EXTT1=
EXTT2=
EXTT3=
EXTT4=
EXTT5=
EXTT6=
PLAYORDER=
